<?xml version="1.0" standalone="no"?>
<!DOCTYPE svg PUBLIC "-//W3C//DTD SVG 20010904//EN"
 "http://www.w3.org/TR/2001/REC-SVG-20010904/DTD/svg10.dtd">
<svg version="1.0" xmlns="http://www.w3.org/2000/svg"
 width="520.000000pt" height="520.000000pt" viewBox="0 0 520.000000 520.000000"
 preserveAspectRatio="xMidYMid meet">
<metadata>
Created by potrace 1.11, written by Peter Selinger 2001-2013
</metadata>
<g transform="translate(0.000000,520.000000) scale(0.100000,-0.100000)"
fill="#000000" stroke="none">
<path d="M1 4403 l1 -798 34 160 c83 395 149 626 236 835 100 238 215 387 314
406 30 5 39 1 74 -30 22 -20 44 -36 48 -36 5 0 30 -31 56 -69 26 -38 81 -102
123 -142 l76 -72 -13 -66 c-13 -66 -137 -501 -206 -721 -19 -63 -46 -158 -60
-210 -25 -97 -85 -432 -79 -439 7 -7 102 78 184 165 163 172 194 221 490 766
143 265 285 503 342 577 11 14 41 48 66 74 l46 48 50 -56 c27 -31 73 -70 102
-86 43 -24 64 -47 118 -128 36 -54 77 -121 91 -149 l25 -50 -30 -174 c-16 -95
-48 -267 -71 -383 -32 -164 -41 -234 -42 -320 -1 -114 8 -185 24 -185 5 0 49
39 97 88 78 76 96 102 150 207 83 163 151 333 278 695 119 341 181 495 261
650 82 159 71 152 152 91 87 -64 197 -180 240 -253 46 -78 79 -177 98 -298
l16 -102 -61 -143 c-59 -137 -124 -303 -236 -600 -249 -663 -458 -1012 -731
-1221 l-74 -57 -58 7 c-52 6 -62 4 -97 -19 l-38 -26 -69 46 c-37 26 -87 68
-111 94 -48 55 -169 269 -253 451 -32 69 -59 127 -61 129 -1 2 -89 -81 -196
-185 -224 -220 -331 -304 -482 -379 -122 -60 -206 -83 -316 -86 -69 -2 -79 1
-144 38 -177 99 -233 156 -306 315 l-54 116 -3 -1126 c-1 -619 0 -1127 2
-1129 2 -3 13 1 24 8 20 13 22 12 129 -36 39 -18 47 -26 61 -70 15 -44 21 -51
52 -57 19 -4 59 -13 88 -20 46 -11 60 -10 103 5 45 16 51 16 71 2 32 -22 61
-19 89 11 15 16 30 23 43 20 44 -12 112 54 103 100 -3 17 3 28 20 40 14 8 22
18 19 22 -3 3 0 15 7 26 27 43 37 106 39 251 3 228 0 331 -12 440 -6 55 -12
134 -14 175 -11 208 -19 287 -32 307 -8 13 -14 35 -14 50 0 16 -1 37 -2 48 0
11 0 25 2 30 1 6 2 20 1 32 -1 19 -6 21 -43 18 -24 -2 -63 -8 -88 -14 -25 -5
-102 -9 -172 -8 l-127 2 -33 33 c-19 17 -39 32 -46 32 -14 0 -32 63 -32 116 0
87 79 120 316 129 183 7 255 14 271 27 7 5 21 7 33 3 12 -4 27 -2 34 4 10 8
25 5 58 -14 54 -30 197 -47 222 -26 9 8 38 11 71 10 33 -2 60 2 67 9 7 7 20
12 29 12 10 0 21 5 24 10 10 16 35 12 67 -11 24 -18 39 -21 81 -17 51 5 53 5
85 -34 38 -47 44 -109 15 -149 -19 -25 -47 -81 -57 -112 -9 -29 -54 -38 -190
-37 -72 1 -139 -1 -149 -5 -9 -4 -24 -2 -32 5 -8 7 -26 10 -39 6 -20 -5 -26
-14 -32 -53 -4 -25 -4 -84 0 -130 6 -77 13 -197 21 -333 2 -30 8 -82 14 -115
25 -146 33 -235 27 -305 -4 -41 -8 -122 -10 -180 -1 -58 -8 -127 -14 -155 -21
-98 -32 -173 -27 -187 3 -8 -7 -23 -24 -36 -16 -12 -34 -37 -41 -57 -6 -19
-16 -35 -21 -35 -4 0 -16 -15 -25 -33 -17 -33 -79 -97 -94 -97 -4 0 -10 -9
-13 -20 -3 -11 -14 -20 -25 -20 -11 0 -25 -7 -32 -15 -7 -8 -17 -15 -24 -15
-6 0 -37 -17 -70 -37 l-60 -36 -185 -2 c-136 -1 -195 2 -220 12 -18 7 -57 13
-85 13 -29 0 -56 4 -62 9 -5 5 -39 25 -77 44 l-67 36 0 -125 0 -124 2600 0
2600 0 0 533 -1 532 -27 -33 c-20 -23 -42 -36 -85 -47 -57 -15 -60 -14 -98 7
-34 19 -44 20 -69 11 -21 -8 -64 -8 -151 -1 -147 12 -289 -2 -330 -32 -16 -11
-35 -17 -48 -13 -23 6 -26 -3 -12 -39 34 -91 43 -134 42 -215 -1 -48 0 -104 0
-123 5 -128 -4 -196 -31 -249 -43 -82 -121 -118 -192 -88 -26 11 -41 28 -63
73 -25 50 -29 73 -32 154 -1 52 -8 107 -14 122 -8 20 -8 32 -1 41 8 9 8 26 1
57 -11 48 -16 94 -21 206 -2 40 -9 79 -16 87 -9 10 -10 22 -2 41 7 18 7 42 -1
74 -5 25 -9 76 -8 112 2 63 -5 170 -17 257 -4 30 -12 46 -27 54 -30 16 -30 15
-18 36 6 10 15 44 21 76 12 58 57 127 84 127 6 0 23 6 38 14 21 11 40 12 90 4
146 -22 237 -30 413 -40 17 0 85 1 153 4 93 4 127 9 140 21 14 13 21 14 30 5
8 -8 25 -7 66 6 62 20 139 14 169 -12 16 -14 17 22 17 737 l0 753 -38 -49
c-73 -92 -237 -223 -423 -340 -91 -57 -389 -205 -508 -252 -132 -53 -391 -162
-529 -223 -76 -33 -121 -48 -137 -44 -90 23 -185 93 -230 170 -36 61 -63 175
-79 331 l-15 140 30 64 c16 35 29 74 29 86 0 13 5 36 10 51 25 66 81 273 91
338 8 47 19 80 34 98 53 63 37 447 -31 711 -26 103 -2 237 42 237 24 0 23 17
-8 111 -27 84 -29 98 -19 134 7 22 20 69 30 105 16 57 58 160 66 160 16 0 258
-90 351 -131 141 -61 361 -147 459 -179 52 -17 114 -53 245 -143 96 -66 209
-145 250 -176 104 -78 267 -242 329 -330 l51 -74 0 576 0 577 -2600 0 -2600 0
1 -797z m2307 -2634 c93 -8 117 -15 180 -47 75 -38 76 -41 87 -107 5 -37 3
-43 -43 -92 -32 -36 -56 -53 -73 -53 -13 0 -30 -4 -38 -9 -8 -5 -26 -4 -47 5
-24 10 -45 11 -81 5 -36 -7 -63 -5 -108 7 -82 22 -343 18 -379 -6 -6 -4 -29
-7 -51 -7 l-40 0 -3 -77 c-3 -76 -2 -77 26 -92 35 -18 254 -25 274 -8 9 7 57
9 138 7 69 -3 137 -5 152 -5 21 0 34 -12 65 -57 32 -47 73 -130 73 -147 0 -2
-13 -6 -30 -9 -21 -5 -30 -12 -30 -26 0 -10 -16 -33 -35 -49 l-34 -31 -158 5
c-204 6 -202 6 -311 1 -99 -5 -127 -17 -116 -50 16 -50 33 -333 22 -372 -4
-18 -2 -26 11 -30 22 -7 363 2 416 11 22 4 49 13 60 20 11 6 35 15 53 19 28 6
41 2 77 -24 24 -17 47 -31 53 -31 5 0 17 -9 27 -20 10 -11 24 -20 32 -20 8 0
12 -11 11 -32 -1 -18 1 -43 5 -55 7 -18 3 -25 -22 -38 -27 -13 -31 -21 -31
-55 0 -35 -4 -42 -27 -51 -16 -6 -36 -15 -46 -21 -10 -5 -45 -8 -77 -7 -33 1
-65 -3 -73 -9 -7 -6 -23 -9 -35 -5 -12 3 -32 -2 -45 -10 -28 -18 -106 -12
-122 10 -8 10 -36 12 -120 8 -60 -2 -126 -6 -145 -9 -152 -19 -178 -18 -220 5
-22 12 -40 26 -40 31 0 5 -19 29 -41 53 -38 41 -40 47 -27 63 21 23 12 89 -13
103 -26 14 -24 36 5 43 24 6 24 9 23 89 -1 45 -1 105 -1 132 1 28 0 118 -2
200 -11 452 -17 529 -39 555 -7 8 -13 26 -13 40 -1 14 -2 60 -4 104 -3 76 -2
79 22 89 14 6 38 22 55 35 28 23 34 24 120 17 151 -13 188 -12 235 1 27 8 69
12 105 9 33 -3 101 -1 150 4 50 5 100 7 113 4 13 -2 71 -8 130 -14z m622 1
c44 -12 145 -21 355 -32 79 -4 276 10 289 21 8 7 25 9 38 6 13 -3 41 1 62 10
61 26 144 13 187 -30 58 -56 65 -76 45 -138 -9 -30 -24 -64 -33 -76 -20 -29
-88 -60 -130 -61 -21 0 -37 -7 -47 -21 -13 -20 -18 -21 -45 -9 -23 9 -38 9
-62 1 -42 -14 -102 -13 -163 3 -33 9 -64 10 -95 4 -25 -4 -59 -6 -76 -3 -51 9
-233 12 -246 4 -9 -5 -10 -23 -3 -69 l9 -61 85 -6 c123 -9 445 -8 516 1 48 7
67 5 92 -8 25 -13 37 -14 53 -5 11 6 22 9 24 7 1 -2 26 -30 54 -62 59 -68 66
-106 29 -159 -42 -63 -72 -87 -125 -102 -51 -15 -55 -15 -95 6 -35 18 -47 20
-71 11 -20 -8 -64 -8 -150 0 -166 14 -347 -9 -347 -45 0 -5 -11 -6 -25 -3 -16
4 -25 2 -25 -6 0 -13 18 -71 33 -108 6 -14 12 -74 14 -135 2 -60 4 -119 4
-130 6 -101 -6 -183 -33 -241 -26 -55 -34 -64 -78 -83 -58 -25 -70 -26 -115
-7 -26 11 -40 28 -62 73 -25 50 -29 71 -31 156 -1 56 -7 106 -14 117 -10 16
-10 24 -1 39 9 14 9 29 2 54 -10 37 -16 93 -21 213 -2 40 -9 79 -16 87 -9 10
-10 22 -3 39 6 16 6 40 0 64 -5 22 -9 68 -8 104 0 97 -11 239 -23 287 -7 27
-17 45 -30 49 -13 4 -17 11 -12 22 3 10 12 42 19 72 19 90 51 132 107 145 15
4 30 11 33 16 6 9 79 3 135 -11z"/>
<path d="M3966 4213 c59 -252 62 -639 8 -930 -3 -18 -4 -33 -1 -33 2 0 30 11
61 25 31 13 77 30 103 36 30 7 62 25 84 46 24 23 80 53 162 87 197 83 337 187
394 294 l18 33 -60 56 c-143 134 -195 187 -200 202 -2 9 -23 22 -45 29 -23 7
-80 35 -128 62 -48 27 -112 54 -142 61 -30 6 -73 20 -95 31 -44 23 -142 58
-160 58 -10 0 -9 -13 1 -57z"/>
<path d="M5155 1489 c-22 -10 -54 -19 -72 -19 -21 0 -37 -7 -47 -21 -13 -20
-18 -21 -45 -9 -23 9 -38 9 -62 1 -42 -14 -102 -13 -164 3 -33 9 -62 10 -89 4
-22 -5 -52 -6 -69 -2 -54 12 -248 10 -258 -3 -6 -6 -7 -28 -3 -49 4 -21 7 -46
8 -57 1 -17 11 -20 86 -25 131 -8 447 -7 522 3 56 6 72 5 93 -9 20 -13 30 -14
46 -5 19 10 26 6 60 -32 l38 -44 1 143 c0 78 -1 142 -2 141 -2 0 -21 -9 -43
-20z"/>
</g>
</svg>
